/* XPM */
static char *_218f7f305934d09cf2b212287fa8dab3eRmxh5CSRi1nY8b[] = {
/* columns rows colors chars-per-pixel */
"33 33 11 1 ",
"  c None",
". c #101012",
"X c #323234",
"o c #583C3C",
"O c #444444",
"+ c #705654",
"@ c #646466",
"# c #7D7D7F",
"$ c #9F8781",
"% c #979799",
"& c #C9C9CB",
/* pixels */
"                                 ",
"                                 ",
"                                 ",
"                                 ",
"           $+o$                  ",
"      $+  $o+o+o                 ",
"      +o$o+o  o$+                ",
"       o+o+    oo                ",
"             ......              ",
"           .XO@@@@OX.            ",
"         .XO@#%%#@@@OX.          ",
"        .O@#%%%%%#@@@OO.         ",
"       .O@%&&&%%%%#@@@OO.        ",
"       X@#&&&&&%%%#@@@OOX        ",
"      .O@%&&&&&%%%#@@@@OO.       ",
"      X@#%&&&&&%%%#@@@@OOX       ",
"     .O@%%%&&&%%%%@@@@@OOO.      ",
"     .O@%%%%%%%%%#@@@@@OOO.      ",
"     .O@#%%%%%%%#@@@@@@OOO.      ",
"     .O@@#%%%%%#@@@@@@OOOO.      ",
"     .OO@@####@@@@##@@OOOO.      ",
"     .OO@@@@@@@@@@##@OOOOO.      ",
"      XOO@@@@@@@@@@@OOOO@X       ",
"      .OOO@@@@@@@@@OOOOO#.       ",
"       XOOOO@@@@@OOOOOO#X        ",
"       .OOOOOOOOOOOOOO#O.        ",
"        .OOOOOOOOOOOO@O.         ",
"         .XOOOOOOOOOOX.          ",
"           .XXXXXXXX.            ",
"             ......              ",
"                                 ",
"                                 ",
"                                 "
};
