/* XPM */
static char *f30391cf7f7441adfbf112f617323a647ppvXJ26nlBMMzAU[] = {
/* columns rows colors chars-per-pixel */
"32 32 42 1 ",
"  c black",
". c gray5",
"X c gray11",
"o c #2A2A2A",
"O c #353535",
"+ c gray22",
"@ c gray24",
"# c gray26",
"$ c #494949",
"% c #555555",
"& c #5A5A5A",
"* c #5D5D5D",
"= c #656565",
"- c DimGray",
"; c #6A6A6A",
": c #797979",
"> c gray50",
", c #8D8D8D",
"< c gray58",
"1 c #989898",
"2 c #9D9D9D",
"3 c #A2A2A2",
"4 c gray65",
"5 c #AEAEAE",
"6 c #B1B1B1",
"7 c #BBBBBB",
"8 c gray74",
"9 c #C0C0C0",
"0 c #C5C5C5",
"q c #CBCBCB",
"w c #CDCDCD",
"e c gray82",
"r c #D7D7D7",
"t c #DFDFDF",
"y c gray89",
"u c #E4E4E4",
"i c gray91",
"p c gray93",
"a c gray94",
"s c gray97",
"d c #FBFBFB",
"f c white",
/* pixels */
">>>>>>>>>>>>>>>>>>>>>>>>>>>>>>>>",
">                              >",
">                              >",
">                              >",
">                              >",
">                              >",
">                              >",
">         o&********&o         >",
">       #qfffffffffffd7o       ,",
">      $uffffffffffffffwo      :",
">     .8ffffffffffffffff6      >",
">     ;afffy53333336pfffp&     >",
">     6fff9X        +rfff2     >",
">    .rffp&          :sffw     >",
">    #uffw           Otffy@    >",
">    &aff7            rffy#    >",
">    %pff7            rffy#    >",
">    #uffr.          #yfftO    >",
">     effp=          ,dff0     >",
">     4fffr#        ;ifff<     >",
">     =afffdaasaaaasdfffi$     >",
">      6fffffffffffffffd2      >",
">      oqffffffffffffff7.      >",
">       .1udffffffffdt,.       >",
">                              >",
">                              >",
">                              >",
">                              >",
">                              >",
">                              >",
">                              >",
">>>>>>>>>>>>>>>>>>>>>>>>>>>>>>>>"
};
