/* XPM */
static char *f07bdb6f4168437ce4138537e98975d3V5nCOrzyPIRKEkJU[] = {
/* columns rows colors chars-per-pixel */
"32 32 33 1 ",
"  c black",
". c gray5",
"X c gray11",
"o c gray15",
"O c #353535",
"+ c gray24",
"@ c gray25",
"# c gray28",
"$ c #5D5D5D",
"% c #656565",
"& c DimGray",
"* c #727272",
"= c #767676",
"- c #7C7C7C",
"; c gray50",
": c #808080",
"> c gray56",
", c #939393",
"< c gray58",
"1 c #B2B2B2",
"2 c #B6B6B6",
"3 c #BCBCBC",
"4 c #C5C5C5",
"5 c #CACACA",
"6 c #D0D0D0",
"7 c #D5D5D5",
"8 c #DFDFDF",
"9 c #E4E4E4",
"0 c #EEEEEE",
"q c gray95",
"w c gray97",
"e c #FBFBFB",
"r c white",
/* pixels */
";;;;;;;;;;;;;;;;;;;;;;;;;;;;;;;;",
";                              ;",
";                              ;",
";                              ;",
";                              ;",
";                              ;",
";                              ;",
";             $42@             ;",
";            >qrr5             ;",
";          X2errr9+            ;",
";         #7rrrrr9@            ;",
";        =0rrrrrr9@            ;",
";       :wrrrrrrr9@            ;",
";       3rrrr3qrr9@            ;",
";       <rr0;$qrr9#            ;",
";        %,+ $qrr9@            ;",
";            $qrr9@            :",
";            $qrr9@            :",
";            $qrr9#            :",
";            $qrr9@            ;",
";            $qrr9@            ;",
";            $qrr9@            ;",
";            $qrr8O            ;",
";            o6rr1             ;",
";             X*&.             ;",
";                              ;",
";                              ;",
";                              ;",
";                              ;",
";                              ;",
";                              ;",
";;;;;;;;;;;;;;;;;;;;;;;;;;;;;;;;"
};
