/* XPM */
static char *_4b7653113e344c9f7da757173d04e69ZQdqp8Z4AQHiygZF[] = {
/* columns rows colors chars-per-pixel */
"32 32 39 1 ",
"  c black",
". c gray5",
"X c gray15",
"o c #2A2A2A",
"O c #353535",
"+ c gray26",
"@ c gray28",
"# c #494949",
"$ c #535353",
"% c #585858",
"& c #5D5D5D",
"* c #6A6A6A",
"= c #6C6C6C",
"- c #727272",
"; c #767676",
": c gray50",
"> c gray51",
", c gray55",
"< c gray58",
"1 c #9B9B9B",
"2 c gray61",
"3 c #A2A2A2",
"4 c #A5A5A5",
"5 c #ACACAC",
"6 c #B2B2B2",
"7 c gray75",
"8 c #C5C5C5",
"9 c #C8C8C8",
"0 c #CECECE",
"q c #D0D0D0",
"w c gray87",
"e c #E2E2E2",
"r c #E6E6E6",
"t c gray91",
"y c gray93",
"u c gray95",
"i c gray97",
"p c #F9F9F9",
"a c #FEFEFE",
/* pixels */
"::::::::>:::::::::::::::::::::::",
":                              :",
":                              :",
":                              :",
":                              :",
":                              :",
":                              :",
":      .$&&&&&&&&&&&+          :",
":     oqaaaaaaaaaaaaap7+       :",
":     &uaaaaaaaaaaaaaaar&      :",
":     +eaaaaaaaaaaaaaaaaqX     :",
":      @233333333334qaaai;     :",
":                    8aaa<     :",
":                   *taap>     :",
":       o5uaaaaaaaaaaaaar#     :",
":      #eaaaaaaaaaaaaaaa3      :",
">     .9aaaaaaaaaaaaaap1.      :",
":     =uaaarqqqqqqqq9<O        :",
":     <aaa0.                   :",
":     2aaa7                    :",
":     2aaaauuuuuiuuuuuuy<      :",
":     ,aaaaaaaaaaaaaaaaai*     :",
":     %yaaaaaaaaaaaaaaaau*     :",
":      -wuuuuuuuuuuuuuuu6.     :",
":                              >",
":                              :",
":                              :",
":                              :",
":                              :",
":                              :",
":                              :",
"::::::::::::::::::::::::::::::::"
};
