/* XPM */
static char *_231ba53b72245e8978541b917539e66tHSiIMHJRMBJ0AWj[] = {
/* columns rows colors chars-per-pixel */
"32 32 37 1 ",
"  c black",
". c gray5",
"X c gray11",
"o c #2A2A2A",
"O c gray22",
"+ c gray25",
"@ c gray27",
"# c #4B4B4B",
"$ c gray30",
"% c #535353",
"& c #5A5A5A",
"* c #5D5D5D",
"= c gray39",
"- c #686868",
"; c #6C6C6C",
": c #7E7E7E",
"> c gray50",
", c gray56",
"< c gray58",
"1 c #959595",
"2 c gray60",
"3 c #A2A2A2",
"4 c #AAAAAA",
"5 c #B2B2B2",
"6 c #B9B9B9",
"7 c gray76",
"8 c #C5C5C5",
"9 c gray82",
"0 c gray84",
"q c #E2E2E2",
"w c #E4E4E4",
"e c #E9E9E9",
"r c #EEEEEE",
"t c gray94",
"y c gray97",
"u c #F8F8F8",
"i c white",
/* pixels */
">>>>>>>>>>>>>>>>>>>>>>>>>>>>>>>>",
">                              >",
">                              >",
">                              >",
">                              >",
">                              >",
">                              >",
">      .%***********#          >",
">     O0iiiiiiiiiiiiiy5o       ,",
">     >uiiiiiiiiiiiiiii9o      >",
">     +qiiiiiiiiiiiiiiii5      >",
">      +1333333333339iiiw+     >",
">                   @wiit*     >",
">                  X2yiie$     >",
">     .6iiiiiiiiiiiiiiii7      >",
">     &tiiiiiiiiiiiiiiit-      >",
">     #eiiiiiiiiiiiiiiii5      >",
">      =899999999999riiiw#     >",
">                   O0iiy;     >",
">                   #wiit=     >",
">      ,ettyttytttttuiiiqO     >",
">     &tiiiiiiiiiiiiiiii1      >",
">     &tiiiiiiiiiiiiiiu4.      >",
">     .3ryttyttttttyr8*        >",
">                              >",
">                              >",
">                              >",
">                              >",
">                              >",
">                              >",
">                              >",
">>>>>>>>>>>>>>>>>>>>>>>>>>>>>>>>"
};
