/* XPM */
static char *_24ac326001a494fb3338611b633bfa91I1INHbjGN9xdHvB[] = {
/* columns rows colors chars-per-pixel */
"32 32 37 1 ",
"  c black",
". c gray5",
"X c gray11",
"o c #2A2A2A",
"O c #353535",
"+ c gray22",
"@ c gray26",
"# c gray27",
"$ c gray31",
"% c #515151",
"& c #555555",
"* c #5A5A5A",
"= c #5D5D5D",
"- c #6A6A6A",
"; c #797979",
": c gray50",
"> c gray58",
", c gray60",
"< c #9D9D9D",
"1 c #AFAFAF",
"2 c #B1B1B1",
"3 c #B4B4B4",
"4 c #BBBBBB",
"5 c gray74",
"6 c #CBCBCB",
"7 c #D2D2D2",
"8 c #D5D5D5",
"9 c gainsboro",
"0 c gray87",
"q c gray89",
"w c #E4E4E4",
"e c #ECECEC",
"r c #EEEEEE",
"t c #F3F3F3",
"y c #F4F4F4",
"u c #FBFBFB",
"i c #FEFEFE",
/* pixels */
"::::::::>;;:::::::::::::::::::::",
":                              :",
":                              :",
":                              :",
":                              :",
":                              :",
":                              :",
":      &55@       o16-         :",
":     O9ii6       2iie%        :",
":     =tiiw@      8iit=        :",
":     =tiiw@      8iit=        :",
":     =tiiw@      8iit=        :",
":     #wiiw@      8iit=        :",
":     @wiiw#      8iit=        :",
":      7iiu;      8iit=        :",
":      2iiiq$     8iit=        :",
":      -yiiiiyttttuiiiye3o     >",
":      .4iiiiiiiiiiiiiiii>     ;",
":       o7iiiiiiiiiiiiiii,     :",
":        X<wttttttiiiiyy6@     :",
":                 8iit=        :",
":                 8iit=        :",
":                 8iiy=        :",
":                 <ii9+        :",
":                  *:o         :",
":                              :",
":                              :",
":                              :",
":                              :",
":                              :",
":                              :",
"::::::::::::::::::::::::::::::::"
};
