/* XPM */
static char *_ed74bb61b0f4c8fa6a0a890a8a59fa6HQ2SNKuRQafJhsuB[] = {
/* columns rows colors chars-per-pixel */
"32 32 36 1 ",
"  c black",
". c gray5",
"X c gray11",
"o c #2A2A2A",
"O c gray22",
"+ c gray28",
"@ c #494949",
"# c #535353",
"$ c #5A5A5A",
"% c #5D5D5D",
"& c #6A6A6A",
"* c gray45",
"= c gray50",
"- c #848484",
"; c gray55",
": c #929292",
"> c gray60",
", c #9D9D9D",
"< c #A2A2A2",
"1 c #A4A4A4",
"2 c gray66",
"3 c gray71",
"4 c #BCBCBC",
"5 c #C0C0C0",
"6 c #C8C8C8",
"7 c #CECECE",
"8 c gray82",
"9 c #DADADA",
"0 c gray88",
"q c #E6E6E6",
"w c gray91",
"e c gray92",
"r c #F3F3F3",
"t c gray97",
"y c #F9F9F9",
"u c #FEFEFE",
/* pixels */
"========-=======================",
"=                              =",
"=                              =",
"=                              =",
"=                              =",
"=                              =",
"=                              =",
"=       X$%%%%%%%%%%%%%#.      =",
"=      ,yuuuuuuuuuuuuuuu8o     -",
"=     &ruuuuuuuuuuuuuuuur=     =",
"=     >uuuuuuuuuuuuuuuuuw@     =",
"=     ,uuuw2<<<<<<<<<<1,@      =",
"=     ,uuu4                    =",
"=     -yuur*                   =",
"=     @wuuuuuuuuuuuuur3O       =",
"=      ,uuuuuuuuuuuuuuu0@      =",
"=       >yuuuuuuuuuuuuuu7.     =",
"=        o:688888888quuur&     =",
"=                   .7uuy;     =",
"=                   o9uuy-     =",
"=      ;wrrrrrrrrrrryuuuw$     =",
"=     $ruuuuuuuuuuuuuuuu4      =",
"=     %ruuuuuuuuuuuuuuu5o      =",
"=     .1wrrrrrrrrrrrr7*        =",
"=                              -",
"=                              =",
"=                              =",
"=                              =",
"=                              =",
"=                              =",
"=                              =",
"================================"
};
