/* XPM */
static char *b162e0c5487649d1c6ddbd4443fd2b4f2P6dJSc7MoPnr2AB[] = {
/* columns rows colors chars-per-pixel */
"32 32 42 1 ",
"  c black",
". c gray5",
"X c gray11",
"o c #2A2A2A",
"O c gray22",
"+ c gray26",
"@ c gray27",
"# c #4B4B4B",
"$ c gray30",
"% c #555555",
"& c #5A5A5A",
"* c #5D5D5D",
"= c #626262",
"- c #686868",
"; c #767676",
": c gray47",
"> c gray50",
", c #838383",
"< c #888888",
"1 c gray58",
"2 c gray59",
"3 c #9B9B9B",
"4 c gray63",
"5 c gray65",
"6 c #B1B1B1",
"7 c #B6B6B6",
"8 c #B9B9B9",
"9 c #BCBCBC",
"0 c gray76",
"q c gray78",
"w c #CACACA",
"e c #CECECE",
"r c gray82",
"t c #DDDDDD",
"y c gray88",
"u c #E6E6E6",
"i c #E9E9E9",
"p c #EFEFEF",
"a c gray95",
"s c gray97",
"d c #FBFBFB",
"f c white",
/* pixels */
">>>>>>>>>>>>>>>>>>>>>>>>>>>>>>>>",
">                              >",
">                              >",
">                              >",
">                              >",
">                              >",
">                              >",
">          #**********&o       >",
">       .1affffffffffffp-      >",
">       4fffffffffffffff8      >",
">      :sfffffffffffffff1      >",
">     .efffsw4444444444>.      >",
">     *affp-                   >",
">     1fff5                    >",
">     6ffa=,sffffffffsq@       >",
">     9ffu@rfffffffffffp-      >",
">     9ffu$9ffffffffffffy+     >",
">     4ffd;O6rrrrrrrtdfff1     >",
">     <dff8.         7fff8     >",
">     %pffd1.       .7fff7     >",
">      0ffffsaaaaaaasfffd<     >",
">      &pfffffffffffffffro     >",
">       ,sfffffffffffffy#      >",
">        *wpaaaaaaaaat3X       >",
">                              >",
">                              >",
">                              >",
">                              >",
">                              >",
">                              >",
">                              >",
">>>>>>>>>>>>>>>>>>>>>>>>>>>>>>>>"
};
