/* XPM */
static char *_f3a18023bbd45648931bd4df2cf7d811qcoRXTzhTwkqSk2[] = {
/* columns rows colors chars-per-pixel */
"32 32 33 1 ",
"  c black",
". c gray5",
"X c gray11",
"o c #2A2A2A",
"O c gray22",
"+ c gray26",
"@ c #515151",
"# c #585858",
"$ c #5D5D5D",
"% c #626262",
"& c DimGray",
"* c #777777",
"= c gray47",
"- c gray50",
"; c gray51",
": c #8D8D8D",
"> c gray61",
", c #A2A2A2",
"< c #A5A5A5",
"1 c #A9A9A9",
"2 c #AFAFAF",
"3 c #B1B1B1",
"4 c #BCBCBC",
"5 c gray77",
"6 c #CDCDCD",
"7 c gray83",
"8 c #DADADA",
"9 c gray87",
"0 c #E7E7E7",
"q c #ECECEC",
"w c #F6F6F6",
"e c gray98",
"r c white",
/* pixels */
"--------------------;-----------",
"-                              -",
"-                              -",
"-                              -",
"-                              -",
"-                              -",
"-                              -",
"-      X#$$$$$$$$$$$$$$#o      -",
"-     +9rrrrrrrrrrrrrrrrq%     -",
"-     ;errrrrrrrrrrrrrrrr>     -",
"-     ;wrrrrrrrrrrrrrrrrw=     -",
"-     ;err0<,,,,,,,<qrrr5.     -",
"-     ;err4        ,rrrq#      -",
"-     ;err4       #qrre<       -",
"-     ;err4      .4rrr9O       -",
"-     -wrr3      =wrre;        -",
";     o5r0$     o8rrr5.        ;",
"-               >rrrq%         -",
"-              @0rrr1          -",
"-              4rrr9O          -",
"-             =wrre:           -",
"-            o7rrr6.           -",
"-            -errq&            -",
"-            #qrr3             -",
"-             *62o             -",
"-                              -",
"-                              -",
"-                              -",
"-                              -",
"-                              -",
"-                              -",
"--------------------------------"
};
