/* XPM */
static char *dab8d3b8b20649d1c2a9cfdabe2002eeNwHWiLfT9G78T5rg[] = {
/* columns rows colors chars-per-pixel */
"32 32 40 1 ",
"  c black",
". c gray5",
"X c gray11",
"o c #2A2A2A",
"O c gray22",
"+ c gray25",
"@ c #494949",
"# c #515151",
"$ c #585858",
"% c #5A5A5A",
"& c #5D5D5D",
"* c #6A6A6A",
"= c #727272",
"- c #797979",
"; c gray50",
": c gray52",
"> c gray55",
", c #979797",
"< c gray61",
"1 c #A0A0A0",
"2 c #A4A4A4",
"3 c gray66",
"4 c #B4B4B4",
"5 c #BCBCBC",
"6 c #C0C0C0",
"7 c #C5C5C5",
"8 c #CBCBCB",
"9 c #CDCDCD",
"0 c gray82",
"q c #D7D7D7",
"w c #D8D8D8",
"e c gray87",
"r c gray88",
"t c gray90",
"y c gray91",
"u c gray93",
"i c #F3F3F3",
"p c gray97",
"a c #FBFBFB",
"s c white",
/* pixels */
";;;;;;;;:;;;;;;;;;;;:;;;;;;;;;;;",
";                              ;",
";                              ;",
";                              ;",
";                              ;",
";                              ;",
";                              ;",
";         o$&&&&&&&&$X         ;",
";       =rsssssssssssaq&       ;",
";      :pssssssssssssssu*      ;",
";     $usssssssssssssssseO     ;",
";     <sssp3211111214assp;     ;",
";     5sss1          5sss<     ;",
";     3sssq#        *tssa>     ;",
";     *issssssssssssssssy@     ;",
";     .6ssssssssssssssss1      ;",
":     $usssssssssssssssseO     ;",
";     2sssaw00000000esssa:     ;",
";     9sss,          4sss3     ;",
";     7sss2         .5sss1     ;",
";     ,ssssiiuiiiiiipsssp-     ;",
";     +rssssssssssssssss8.     ;",
";      &rssssssssssssssq+      ;",
";       o<eiiiiiiiiuuw:.       ;",
";                              ;",
";                              ;",
";                              ;",
";                              ;",
";                              ;",
";                              ;",
";                              ;",
";;;;;;;;;;;;;;;;;;;;;;;;;;;;;;;;"
};
