/* XPM */
static char *_4cba007eb424aeeb4b29bbfee1bd856JHgwox1uCXHy4CEg[] = {
/* columns rows colors chars-per-pixel */
"32 32 44 1 ",
"  c black",
". c gray5",
"X c gray11",
"o c gray15",
"O c #2A2A2A",
"+ c #353535",
"@ c gray22",
"# c gray25",
"$ c gray28",
"% c #4B4B4B",
"& c gray30",
"* c #5A5A5A",
"= c #5D5D5D",
"- c #626262",
"; c #6A6A6A",
": c #6C6C6C",
"> c #777777",
", c gray50",
"< c gray51",
"1 c gray52",
"2 c gray54",
"3 c gray55",
"4 c #979797",
"5 c #9B9B9B",
"6 c gray61",
"7 c #A2A2A2",
"8 c #A5A5A5",
"9 c #ACACAC",
"0 c #B1B1B1",
"q c #BBBBBB",
"w c #BCBCBC",
"e c gray76",
"r c gray78",
"t c gray81",
"y c #D2D2D2",
"u c gray84",
"i c gray87",
"p c gray90",
"a c #E9E9E9",
"s c #EEEEEE",
"d c gray95",
"f c #F4F4F4",
"g c #FBFBFB",
"h c #FDFDFD",
/* pixels */
",,,,,,,,,,,,,,,,,,,,,,,,,,,,,,,,",
",                              ,",
",                              ,",
",                              ,",
",                              ,",
",                              ,",
",                              ,",
",         O=========%          ,",
",       >phhhhhhhhhhhs3        ,",
",      7ghhhhhhhhhhhhhg5       ,",
",     ;fhhhhhhhhhhhhhhhd-      ,",
",     0hhhdq7788788yghhhe      ,",
",     yhhh3         1fhha&     ,",
",     rhhhw.         whhg,     ,",
",     4hhhhhhhhhhhhu%<ghh5     ,",
",     @ihhhhhhhhhhhh0=dhh6     ,",
"<      &ihhhhhhhhhhh0-fhh6     <",
",       X2ysfdfdfddr#3hhh4     ,",
",                   oyhhf:     ,",
",                  .9hhhi+     ,",
",      %tfddfddfddffhhhh8      ,",
",      whhhhhhhhhhhhhhhi@      ,",
",      ehhhhhhhhhhhhhhs;       ,",
",      *pddfddfdfdfddq$        ,",
",                              <",
",                              ,",
",                              ,",
",                              ,",
",                              ,",
",                              ,",
",                              ,",
",,,,,,,,,,,,,,,,,,,,,,,,,,,,,,,,"
};
