/* XPM */
static char *f2c417e5b0a243cca07a0fc4bac8b0ddxJvDRc9aYlHHhLBt[] = {
/* columns rows colors chars-per-pixel */
"32 32 16 1 ",
"  c None",
". c black",
"X c #2B1805",
"o c #3B3A3A",
"O c #4E2800",
"+ c #654809",
"@ c gray50",
"# c #98761A",
"$ c #C5A22D",
"% c #AF865E",
"& c #D4AD76",
"* c #A9A9A9",
"= c #CDCBD1",
"- c #DCDCE5",
"; c #E2E2E2",
": c #EDEDFC",
/* pixels */
"                                ",
" ..       ..........            ",
".$&+.  ..@**********@..         ",
".$$&$..*==-----------=*..       ",
" .$$+*=----------------=*..     ",
" .#+*=--=************=---=*.    ",
" .+*=***==--:::::::-==****=*.   ",
".+.@*=----::::::::::::::-=*@@.  ",
".#+=----:::::::::::::::::::*=*. ",
".#+===-::::::::::::::::::::*::-.",
"..$$&+*=-:::::::::::::::::-@**. ",
".$$&+==-----------------==@o@.  ",
".##+**@@*==--------==*@@@***.   ",
" ...@****@@@@@@@@@@@@*****@.    ",
"  .%.@******************@..     ",
"  .%+..@**************@..o      ",
"  .%#o#..@@********@@..&o.      ",
"  .&##o#$o..........o++oX%..... ",
"  .&###o$o++o++##o++o+o++X&;;;*.",
"  .X&&&&o+o+o+###o#o+o+++&+*@.. ",
"  .XOO++#oo#o####o#oo##&&#+.    ",
"  o.XOOO+#=&&&&&&&&&&&&##+O.    ",
" o*o.XOOO++++++++++#####+O.     ",
" o=o..XOOOOOOOOOO++++##+OX.     ",
".X=XX.XOO..O..O..O..+..OX.      ",
" o=o..XXOOOOOOOOOOOO++OX.       ",
" o*o .XXXXXXXXXXXXXXOOX.        ",
"  o  .XX##$$$$$$$$#XXX.         ",
"      .+#$$$$$$&&&$#..          ",
"       .+#########+.            ",
"        ..........              ",
"                                "
};
