/* XPM */
static char *result[] = {
/* columns rows colors chars-per-pixel */
"32 32 16 1 ",
"  c black",
". c #2B1805",
"X c #3B3A3A",
"o c #4E2800",
"O c #654809",
"+ c gray50",
"@ c #98761A",
"# c #C5A22D",
"$ c #AF865E",
"% c #D4AD76",
"& c #A9A9A9",
"* c #CDCBD1",
"= c #DCDCE5",
"- c #E2E2E2",
"; c #EDEDFC",
": c None",
/* pixels */
"::::::::::::: O@O ::::::::::::::",
":::::::::::  +&&&+  ::::::::::::",
":::::::::: &+****&+& :::::::::::",
"::::::::: &+*====*&+& ::::::::::",
":::::::: &*&=;;;==*&*& :::::::::",
"::::::: &*&=;;;;;==*+&+ ::::::::",
"::::::: *=&=;;;;;;=*+&& ::::::::",
":::::: &=;&=;;;;;;=*+*&+ :::::::",
":::::: *;;*=;;;;;;=*&*&& :::::::",
"::::: &=;;=*;;;;;;=&**&&+ ::::::",
"::::: &=;;;&;;;;;==&**&&+ ::::::",
"::::: &=;;;=&;;;;=&***&&+ ::::::",
"::::: &*;;;;=&;;=&****&&+ ::::::",
"::::: &*=;;;;=&&&****&&&+ ::::::",
"::::: +&*=;;=&;=*+&*&&&&+ ::::::",
":::::: +&*==&=;;**+&&&&+ :::::::",
":::::: &++&*&*=;*&+&&+++ :::::::",
"::::::: &&+++&*+&&+++&+ ::::::::",
":::::::  &&&&+&&&+&&&+  ::::::::",
"::::::  X +&+&+++&+&+ X  :::::::",
"::::: O %X  ++&&&++  X$ O ::::::",
":::::O@ O%XO       @X$o @O::::::",
":::: @#O.@%oO@OOO@@o$o.O@O :::::",
":::: @%@ O@%**@@@*%$oo O@O :::::",
":::: O@#. O@@+&-&+ooo .@OO :::::",
"::::: OOO.oO@@+-+.oo..OOO ::::::",
"::::::    .oOOO&..o..    :::::::",
":::::::::: .ooo..... :::::::::::",
":::::::::::  .....  ::::::::::::",
":::::::::::::     ::::::::::::::",
"::::::::::::::: ::::::::::::::::",
"::::::::::::::::::::::::::::::::"
};
