/* XPM */
static char *bfe9d87ee0f24f5bbfbd9e373d5e07d6L0EZVC57mmtFsckr[] = {
/* columns rows colors chars-per-pixel */
"32 32 14 1 ",
"  c None",
". c black",
"X c #2B1805",
"o c #3B3A3A",
"O c #4E2800",
"+ c #654809",
"@ c gray50",
"# c #98761A",
"$ c #C5A22D",
"% c #D4AD76",
"& c #A9A9A9",
"* c #CDCBD1",
"= c #DCDCE5",
"- c #EDEDFC",
/* pixels */
"             .....              ",
"           ..@&&&@..            ",
"          .&@****&@&.           ",
"         .&@*====*&@&.          ",
"        .&*&=---==*&*&.         ",
"       .&*&*-----==*@&@.        ",
"       .*=&=------=*@&&.        ",
"      .&=-&=---+--=*@*&@.       ",
"      .*--&=--+%+-=*@*&&.       ",
"     .&=--&=--#%#==*@*&&@.      ",
"     .&=--*=--#$#*=*&*&&@.      ",
"     .&=--=*--+$+&=&**&&@.      ",
"     .&=---&--*#&*=&**&&@.      ",
"     .&*---=&-=**=&***&&@.      ",
"     .&*=---=&+++&***&&&@.      ",
"     .&*+#*=-+%%%+&*&#+&@.      ",
"      .+%$$&=#$$$#&&$$%+.       ",
"      +%$$$$&#$+$#&$$$$%+       ",
"       ++++#@+#$#+@#++++        ",
"      ...@&&&@+++@&&&@...       ",
"     .+X+.@&@&&&&&@&@.OX+.      ",
"     +#X+#..@@&&&@@..OOX++      ",
"    .#$XO+##.......OOOXX#+.     ",
"    .#$+O++++++++++OOOX+#+.     ",
"    .#%#OOX....o....XOX+#+.     ",
"    .+#$XO.XXXo*oXXX.XX##+.     ",
"     .+++.XOOoo*ooOXX.+++.      ",
"      ... .Xo**+**oX. ...       ",
"           ..oo*oo..            ",
"              o*o               ",
"               o                ",
"                                "
};
