/* XPM */
static char *result[] = {
/* columns rows colors chars-per-pixel */
"32 32 108 2 ",
"   c #1B1A1B",
".  c #1C1C1D",
"X  c #1D1D1E",
"o  c #2C342E",
"O  c #2F2F30",
"+  c #302F31",
"@  c #2D3530",
"#  c #393331",
"$  c #363F39",
"%  c #443C2F",
"&  c #453C36",
"*  c #34402E",
"=  c #3A4737",
"-  c #3C473A",
";  c #39433C",
":  c #3E4B3C",
">  c #5C7D17",
",  c #5B7B19",
"<  c #5C7C19",
"1  c #465A2D",
"2  c #495D2E",
"3  c #4F4138",
"4  c #404E3C",
"5  c #584639",
"6  c #524A38",
"7  c #5B4F39",
"8  c #435433",
"9  c #415035",
"0  c #465835",
"q  c #4A5F33",
"w  c #44543C",
"e  c #495C3C",
"r  c #5A5136",
"t  c #6C5D36",
"y  c #645638",
"u  c #725B35",
"i  c #4E652E",
"p  c #536E20",
"a  c #546F20",
"s  c #516A27",
"d  c #536D2E",
"f  c #567227",
"g  c #587620",
"h  c #597720",
"j  c #5E7D20",
"k  c #4B6035",
"l  c #4E643C",
"z  c #516935",
"x  c #766338",
"c  c #7F6B3E",
"v  c #837139",
"b  c #8C7A40",
"n  c #5E8012",
"m  c #5F8112",
"M  c #648A04",
"N  c #61850B",
"B  c #668B0B",
"V  c #678B0E",
"C  c #699004",
"Z  c #6B9204",
"A  c #6E9605",
"S  c #6B910C",
"D  c #739C05",
"F  c #759C0B",
"G  c #638612",
"H  c #688C13",
"J  c #608119",
"K  c #618219",
"L  c #66881A",
"P  c #6F9219",
"I  c #7A9E19",
"U  c #78A205",
"Y  c #7AA20B",
"T  c #7FA80C",
"R  c #7DA312",
"E  c #82A912",
"W  c #81AA12",
"Q  c #87AF12",
"!  c #85AD16",
"~  c #84AB19",
"^  c #89AF18",
"/  c #8AB316",
"(  c #89B019",
")  c #8EB519",
"_  c #8EB619",
"`  c #8DB31C",
"'  c #92B91C",
"]  c #95BB1F",
"[  c #95BC20",
"{  c #95BD20",
"}  c #99BF23",
"|  c #99C023",
" . c #9CC226",
".. c #9DC327",
"X. c #9CC427",
"o. c #A0C62A",
"O. c #A0C72A",
"+. c #A4CA2E",
"@. c #A4CB2E",
"#. c #A7CE31",
"$. c #AAD134",
"%. c #ABD235",
"&. c #AED538",
"*. c #B1D83B",
"=. c #958946",
"-. c #9E924D",
";. c #A89A53",
":. c None",
/* pixels */
":.:.:.:.:.:.:.:.:.:.:.:.R G F P L a d w :.:.:.:.:.:.:.:.:.:.:.:.",
":.:.:.:.:.:.:.:.:.:.V W [ +.+.[ ) U B f e ; :.:.:.:.:.:.:.:.:.:.",
":.:.:.:.:.:.:.:.A n Q { ..&.&.#.o.Q T n M i 9 q :.:.:.:.:.:.:.:.",
":.:.:.:.:.:.Z ! E U ( +.' %.*.%.@.} T C Q D i h s :.:.:.:.:.:.:.",
":.:.:.:.:.M O.o.T Y +.%.E Q #.O...] Y U ) Q C k h z :.:.:.:.:.:.",
":.:.:.:.:.A +._ Q Q *.*.' +.+.} ) Q T } T T B m n h 8 :.:.:.:.:.",
":.:.:.:.g G Q Q ) +.[ %.+.+.O.) ] ' O...T B M n h M i ; :.:.:.:.",
":.:.:.:.> A ' o.~ &.[ Q ' #.O.' Q T Y Q T Q A B N < h : :.:.:.:.",
":.:.:.:.A Q #.+.Q $.o.) #.%.&.%.} Y T X.} Y D N D B d 0 w :.:.:.",
":.:.:.Z D ) *.#.' { #./ ` #.*.%. .U B T F C n S U D n h f :.:.:.",
":.:.M ' D D [ { Y Q %.$./ E T T T C G B D T D B D D n f N 4 :.:.",
":.:.H { A A Y ..} T } %.#./ ' ' Q T E T Q  ...T C C n e f w :.:.",
":.:.H Y T A o.*.#.' Q ] ) #.#.&.o.) ] Q ' #.o.Q T , f e z : :.:.",
":.M R C E Y { &.%.| ] ) +.&.+.%.+.) Q U Q Q T ) C , n e w : :.:.",
":.M T G +.} Q ..' ' +.} ' ..} } ) Y D B D D Y A G N s g z : ; :.",
":.d D E *.%.} O.D %.&.%.} Q T T U D N < B B n n , , h G i d w :.",
":.h I U o.%.+...' ' +.%.O.) T F T ) Q T ^ ) h g h < D M d d w :.",
":.n H F T ..Q &.{ | ! / Y +.#.O.+.&.o.T Y A h w K A C f f d w :.",
":.d m A C T ' #.#.*.%.} Q Q o.` ! o.) S n n f f N A N , < e 4 :.",
":.w h < D ) ) '  .#...%.O.) / ! } o.Q U j A Q D B f d , d e :.:.",
":.:.4 f M Y T D Y Q ' } } ' O.+.#.#.+.Q F [ +.T B , e z e ; :.:.",
":.:.:.4 h n J M n D D Y T Y ) } ' ' Q Y M A Y n n d : e ; :.:.:.",
":.:.:.:.: p m n , n N C n N S Q T A A C h < n f f z : $ :.:.:.:.",
":.:.:.:.; e d , h f d n A C n M B N h d h k k k e e w :.:.:.:.:.",
":.:.:.:.:.1 f i 0 z f , n d g n d 2 z , , f l : l w :.:.:.:.:.:.",
":.:.:.:.:.:.:.0 i g d z i w z g g z f e d l : = o :.:.:.:.:.:.:.",
":.:.:.:.:.:.:.:.:.@ : : w ; - 0 z d e : : * :.:.:.:.:.:.:.:.:.:.",
":.:.:.:.:.:.:.:.:.:.:.:.:.:.& 5 5 & :.:.:.:.:.:.:.:.:.:.:.:.:.:.",
":.:.:.:.:.:.:.:.:.:.:.:.:.6 t =.x 3 &   :.:.:.:.:.:.:.:.:.:.:.:.",
":.:.:.:.:.:.:.:.:.:.:.:.X y ;.-.v b 7 . :.:.:.:.:.:.:.:.:.:.:.:.",
":.:.:.:.:.:.:.:.:.:.:.:.:.% r c u & # :.:.:.:.:.:.:.:.:.:.:.:.:.",
":.:.:.:.:.:.:.:.:.:.:.:.:.:.:.+ O :.:.:.:.:.:.:.:.:.:.:.:.:.:.:."
};
