/* XPM */
static char *_417ac80afa74e459f9080a5311596beNHcoDr3EsMl6jXzR[] = {
/* columns rows colors chars-per-pixel */
"32 32 198 2 ",
"   c None",
".  c #284113",
"X  c #395D1C",
"o  c #365A1B",
"O  c #446D1E",
"+  c #49711F",
"@  c #475736",
"#  c #5E4E35",
"$  c #635235",
"%  c #466E25",
"&  c #4A7423",
"*  c #4F6639",
"=  c #546D3A",
"-  c #527D3B",
";  c #71623F",
":  c #26314A",
">  c #293253",
",  c #2B365A",
"<  c #2E3A62",
"1  c #2D3564",
"2  c #303765",
"3  c #313B65",
"4  c #31376A",
"5  c #323C6B",
"6  c #353E75",
"7  c #383F75",
"8  c #31426F",
"9  c #38416F",
"0  c #364174",
"q  c #3A4373",
"w  c #36447B",
"e  c #38407C",
"r  c #505B46",
"t  c #715F44",
"y  c #557048",
"u  c #78694A",
"i  c #7F7059",
"p  c #454F63",
"a  c #494F69",
"s  c #484F64",
"d  c #4D5374",
"f  c #4E537A",
"g  c #4F5577",
"h  c #4D8025",
"j  c #558524",
"k  c #588C29",
"l  c #5B9227",
"z  c #5E992B",
"x  c #5C962B",
"c  c #588636",
"v  c #5F9A31",
"b  c #649C2A",
"n  c #629126",
"m  c #6B983A",
"M  c #719C3A",
"N  c #67A12C",
"B  c #6BA52D",
"V  c #6FAA2E",
"C  c #74AD2E",
"Z  c #76B02F",
"A  c #78B12E",
"S  c #6AA533",
"D  c #74A936",
"F  c #5C8557",
"G  c #6D9847",
"H  c #79A646",
"J  c #7DA872",
"K  c #8ABC4E",
"L  c #93836B",
"P  c #8F937D",
"I  c #978973",
"U  c #9CB879",
"Y  c #87AC6B",
"T  c #3B4683",
"R  c #3C4885",
"E  c #3D4B8C",
"W  c #384685",
"Q  c #3D4E91",
"!  c #3B4D9C",
"~  c #3F5095",
"^  c #414B8E",
"/  c #424A83",
"(  c #545B88",
")  c #434D92",
"_  c #454F99",
"`  c #435097",
"'  c #45529B",
"]  c #4A529C",
"[  c #4F5C9D",
"{  c #5B608F",
"}  c #5B6499",
"|  c #656B8C",
" . c #616987",
".. c #686F9A",
"X. c #6D759C",
"o. c #4353A3",
"O. c #4B55A3",
"+. c #4B59A4",
"@. c #4555A8",
"#. c #4C57AC",
"$. c #4C59AC",
"%. c #535DAA",
"&. c #4C5BB3",
"*. c #465BB9",
"=. c #525EB3",
"-. c #4164AC",
";. c #4766B4",
":. c #5360BA",
">. c #526BBD",
",. c #5460B2",
"<. c #526BB3",
"1. c #6971A6",
"2. c #676DB3",
"3. c #4E62C2",
"4. c #5666C6",
"5. c #5966C4",
"6. c #5C6BCB",
"7. c #5265CD",
"8. c #4D66D2",
"9. c #4F6ADF",
"0. c #5269D5",
"q. c #596DD8",
"w. c #606FCF",
"e. c #6172DA",
"r. c #526DE2",
"t. c #5478EC",
"y. c #6479EC",
"u. c #677AE7",
"i. c #6B7EF0",
"p. c #608BDD",
"a. c #4F89E2",
"s. c #538AE3",
"d. c #5A88E8",
"f. c #648AEC",
"g. c #6592E6",
"h. c #8A8D8C",
"j. c #90918E",
"k. c #818F9D",
"l. c #8D9494",
"z. c #929594",
"x. c #989A9C",
"c. c #A59D9B",
"v. c #AAA59F",
"b. c #B0A79B",
"n. c #B4AA9D",
"m. c #A4A68D",
"M. c #9196A5",
"N. c #95A3A5",
"B. c #9EA9AC",
"V. c #94A4AB",
"C. c #9EB0B3",
"Z. c #ACA6A1",
"A. c #A4ABAD",
"S. c #ACACAA",
"D. c #B2ABA3",
"F. c #B6AFA8",
"G. c #B3B1AD",
"H. c #BCB4AA",
"J. c #AEAEB3",
"K. c #A4A5B9",
"L. c #B3AFB4",
"P. c #B5B2B3",
"I. c #BDB9B6",
"U. c #B7B2B8",
"Y. c #CBBEAE",
"T. c #C5BAAB",
"R. c #C1BBB2",
"E. c #C1BDB9",
"W. c #CBC4BC",
"Q. c #C9C3B8",
"!. c #D3C6B4",
"~. c #D3CABA",
"^. c #D7CBB8",
"/. c #8089D7",
"(. c #B8B7C9",
"). c #8CA7F4",
"_. c #C0BDC9",
"`. c #ADC4C9",
"'. c #BDC6C4",
"]. c #B2C7CA",
"[. c #B3C9CD",
"{. c #BBCACB",
"}. c #B3C3C5",
"|. c #B2CCD0",
" X c #C6C1C6",
".X c #CECBC3",
"XX c #C8C9C9",
"oX c #D4CDC4",
"OX c #DCD4CC",
"+X c #D6D0C8",
"@X c #C7D2D1",
"#X c #D9D8D2",
"$X c #E3DCD4",
"%X c #E8DED5",
"&X c #E7E0D8",
"*X c #EBE4DC",
"=X c #F4EBDC",
"-X c #F3EBE2",
/* pixels */
"                                                                ",
"                              ).                                ",
"                          /.e.f.>.+.                            ",
"        f p d a s f a } &.4.0.t.-.E E / d s f p g a s (         ",
"        6 3 E ) 6 6 6 ' @.*.r.f.>.E 8 < 3 > T ) R 5 , e         ",
"        W ] ] ^ 6 6 6 E #.6.q.d.;.' R 8 : 3 _ O.e 6 0 R         ",
"        ` w R 6 , W W O.&.*.8.d.;.W w 8 3 < E R 1 2 w `         ",
"        +.E ' 4 w $.E E o.4.e.f.4.' w , > 0 ' w 4 ) Q +.        ",
"        g.a.d.p.a.f.3.` =.4.0.t.-.Q E 0 > -.f.a.g.s.s.g.        ",
"    K J y.t.y.$.r.f.7.[ o.*.0.f.>.E 0 < 2 @.u.0.=.t.t.u.+ n     ",
"    V S u.9.q.' #.u.;.E $.6.4.1.} ! W < : @.e.3._ 0.r.u.N V     ",
"    x F e.8.4.,.' q.&.o.$.{ M.%X-XK.{ 6 1 o.6.4.] &.8.e.% b     ",
"  . C B 6.7.w.%.O.:.*.( M.A.[.-X=X[.[.J.( ! 6.2.] %.3.w.B A .   ",
"    l F 5.6.X.N.M.%.*. XoXN.B.%XOXV.N.$X_.! %.k.V.1.&.5.% l     ",
"    A S ,... X`.'.K.! (. XL.U.XX XU.P.XXK.T P.}.`.oX[ :.N A     ",
"    z c ,.[ ..| | 2.! @.@.! &.! o.#.! #.o.+.2. .| ..' =.k z     ",
"    V G +.E ' ' ) +.Q ] ' E $.Q _ O.E O.` ` +.E O.' ) +.k C     ",
"    b v ] R ) ^ R ] R ^ _ T ] R E _ T ] E R ] w _ ^ T ] b N     ",
"    b - 0 9 q q 9 q 9 q 0 9 0 q q 0 7 q q q q 0 q q 9 7 & b     ",
"    C B Z.G.B.A.I.E.J.B.P.E.I.B.A.E.E.S.B.P.E.I.B.A.E.Z.B C     ",
"    l G +XOX|.[.*X*X@X|.#X&X&X`.{.-X*X@X[.#X*X$X[.{.&X.X% l     ",
"    Z C .XI.l.l.$X&Xx.l.G.*XQ.l.l.$X&Xx.l.P.&XQ.l.z.#X~.V A     ",
"    x G .X+X$X$X$X$X$X$X$X-X=X*X=X=X=X$X$X$X$X$X$X$X#XQ.h x     ",
"    Z D Q.~.{.XXOX#X.X{.oX^.!.!.!.^.^.XX{.+X#XOX{.XXOXQ.b Z     ",
"    b m I.W.|.].OX+XXX[..XY.i u i I T.'.[.oXOXoX[.[.+XE.k n     ",
"    V H H.H.h.h.W.oXz.h.v.!.u ; ; L Y.j.h.Z.oXG.h.h.W.H.k V     ",
"    S b D.v.v.v.Z.Z.Z.v.D.!.t # $ L T.v.Z.Z.v.Z.v.b.D.D.N B     ",
"    b c r M * @ M @ = m m.!.n.b.b.H.Y.P M * @ M @ * M r & b     ",
"    Z N X A k j Z % N Z U ^.~.~.^.~.^.U Z b O Z j j Z X N Z .   ",
"    o     %     U     X                 Y     X     X     o     ",
"                                                                ",
"                                                                "
};
