/* XPM */
static char *_bd65594efcb44a3dd57d3ed56cc691eZGk83R4tb7XsXV5t[] = {
/* columns rows colors chars-per-pixel */
"32 32 9 1 ",
"  c None",
". c #840000",
"X c #B60000",
"o c #F00000",
"O c #FF3131",
"+ c #FF5959",
"@ c #FF9191",
"# c #C9C9CB",
"$ c #FFCBCB",
/* pixels */
"        ...  XXX  .....         ",
"      ..O++ XXX    XOO  ..      ",
"     .o@@+X  X      XX OOo.     ",
"    .o@$++X         X +OOOX.    ",
"    .@$+OX             OXOo.    ",
"   .o@+XXX              XXOX.   ",
"   .O@XXX              XXXOX.   ",
"   .O+O X                 OX.   ",
"   .OXX                 X Xo.   ",
"   .OX                 XXX .    ",
"    XX                   X      ",
"    X                           ",
"    XX                     o    ",
"   .OXX                   Xo.   ",
"   .oOX                 XXoX.   ",
"   .XOXXXX               XoX.   ",
"    .oOXX             XXOoo.    ",
"    .XoOX X X          XooX.    ",
"     .Xoo XXX        XXooX.     ",
"      .XoX XXX   X X  XoX.      ",
"       ..X      XXoX.  ..       ",
"            XOooooo.       ##   ",
"           .XXXXXXXoo.   ##     ",
"            .......+o.  #       ",
"                 .@+.###        ",
"                  ..            ",
"                                ",
"                                ",
"                                ",
"                                ",
"                                ",
"                                "
};
