/* XPM */
static char *_5c0fa8e99094e6c96305a1f7ecb323eAJ3JUwwFIpL5weKL[] = {
/* columns rows colors chars-per-pixel */
"32 32 8 1 ",
"  c None",
". c #840000",
"X c #B60000",
"o c #F00000",
"O c #FF3131",
"+ c #FF5959",
"@ c #FF9191",
"# c #C9C9CB",
/* pixels */
"       ...         XXX          ",
"     ..O+   XX      XXX  o.     ",
"    .o@@   XX        X  XXX.    ",
"   .o@@XX                 o..   ",
"   .@@X                    X.   ",
"  .o+++                   XX..  ",
"  .OX                       X.  ",
"  X XX                       .  ",
"                                ",
"   X                        X   ",
"  Xo                       oXX  ",
"   o                         X  ",
"    X                       X   ",
"                                ",
"   o                         .  ",
"  .oX                       X.  ",
"  .XOX                      X.  ",
"  .XoXX                  XXX.   ",
"   .Xo                    XX.   ",
"   .Xo                   oX.    ",
"    .XoX                oX.     ",
"     .X.X               ..  ##  ",
"      .              .    ##    ",
"         oo X       .o.  #      ",
"          ooo      Xoo.##       ",
"           oXX  ....@+.         ",
"                    ..          ",
"                                ",
"                                ",
"                                ",
"                                ",
"                                "
};
