/* XPM */
static char *b7a40b9355a843b98187badb276d2763mR9VRHE4VPHEHCiC[] = {
/* columns rows colors chars-per-pixel */
"32 32 9 1 ",
"  c None",
". c #840000",
"X c #B60000",
"o c #F00000",
"O c #FF3131",
"+ c #FF5959",
"@ c #FF9191",
"# c #C9C9CB",
"$ c #FFCBCB",
/* pixels */
"                                ",
"            ........            ",
"          ..ooOOOOoo..          ",
"         .oO++++++OOOo.         ",
"        .o@@@+++++++OOo.        ",
"       .o@$$$@+++++++OOX.       ",
"       .@$$$$$@++++++OOo.       ",
"      .o@$$$$$@+++++++OOX.      ",
"      .O@$$$$$@+++++++OOX.      ",
"      .O+@$$$@++++++++OOo.      ",
"      .O++@@@+++++++++OOo.      ",
"      .OO++++++++@@++OOOo.      ",
"      .oO++++++++@@++OOoX.      ",
"      .XOO++++++++++OOOoX.      ",
"       .oOOO++++++OOOOoo.       ",
"       .XoOOOOOOOOOOOooX.       ",
"        .XooOOOOOOOoooo.        ",
"         .XooooooooooX.         ",
"          .XXooooooXX.          ",
"           ..XXXXXX..           ",
"             ......             ",
"              .oo.              ",
"             .o@+o.             ",
"              ....              ",
"                #               ",
"                #               ",
"               #                ",
"              #                 ",
"              #                 ",
"               #                ",
"                #               ",
"                                "
};
