/* XPM */
static char *_0fb11101bcc4a3c9c02355d6dd6d926AU3KH9Qh1ZXGx8rI[] = {
/* columns rows colors chars-per-pixel */
"32 32 9 1 ",
"  c None",
". c #840000",
"X c #B60000",
"o c #F00000",
"O c #FF3131",
"+ c #FF5959",
"@ c #FF9191",
"# c #C9C9CB",
"$ c #FFCBCB",
/* pixels */
"         ...      .....         ",
"       ..O++X   XOO+OOX.        ",
"      .o@@@+XX XX++++XXOo.      ",
"     .o@$$$@XXX XX++XX+OOX.     ",
"     .@$$$$XXXX  X+XXX+OOo.     ",
"    .o@$$$$XXX   XXXX+++OOX.    ",
"    .O@$$$$XX X  XX  XXXOOX.    ",
"    .O@$$$@ X     X XXX+OOX.    ",
"    .O+@XXX           XXOOo.    ",
"    .OXXX            XXOOo.     ",
"     XXXXX            XXXX.     ",
"      XX            XXXXOOo.    ",
"    .OXXXX         XXX+OOOo.    ",
"    .oO+++++      XX+++OOoX.    ",
"    .XOO+++    X   XX+OOOoX.    ",
"     .oOOOXXX  XX X XOOOoo.     ",
"     .XoOOXX X X+XX XOOooX.     ",
"      .XooXX XXXOOXXXoooX.      ",
"       .XoX XXXOOOOoXXoX.       ",
"        .XXXXXOooooX. ..        ",
"           XXOooooo.            ",
"           .XXXXXXX             ",
"            ........            ",
"                .o+o.           ",
"               .o@+.#    ###    ",
"                ...  ####   #   ",
"                                ",
"                                ",
"                                ",
"                                ",
"                                ",
"                                "
};
